<svg viewBox="0 0 1024 1176.463" xmlns="http://www.w3.org/2000/svg"><path d="M892.17 503.482c-14.612 53.762-35.78 100.85-63.1 143.63l1.238-2.07c-18.747 29.85-38.696 55.79-60.82 79.684l.317-.347c6.527-30.56 10.265-65.67 10.265-101.65 0-90.93-23.87-176.284-65.686-250.14l1.317 2.53c-2.608-5.178-7.88-8.667-13.97-8.667-3.18 0-6.135.95-8.6 2.584l.058-.036-194.024 121.246c-4.495 2.855-7.435 7.807-7.435 13.446 0 3.107.892 6.005 2.434 8.453l-.04-.066 28.473 45.546c2.832 4.52 7.786 7.484 13.432 7.484 3.13 0 6.05-.91 8.504-2.483l-.063.038 125.765-78.578c4.04 12.237 8.118 24.233 11.2 36.63 9.07 31.966 14.286 68.678 14.286 106.61 0 9.44-.322 18.805-.958 28.084l.07-1.252c-.585 71.547-36.01 134.698-90.124 173.388l-.652.443c-25.635 15.897-56.633 25.505-89.84 25.99l-.134.002h-4.042c-33.34-.476-64.342-10.085-90.732-26.43l.758.437c-54.777-39.122-90.21-102.28-90.774-173.743v-.088c-.562-7.994-.88-17.32-.88-26.723 0-37.968 5.21-74.718 14.958-109.574l-.682 2.857c28.776-103.842 85.42-191.987 161.357-258.694l.595-.512c32.48-28.632 70.15-52.393 111.25-69.586l2.677-.994c27.094-13.246 58.957-20.992 92.628-20.992 37.895 0 73.498 9.81 104.41 27.03l-1.094-.56c54.8 39.074 90.253 102.213 90.816 173.662v.088c.584 8.15.917 17.66.917 27.245 0 37.735-5.15 74.266-14.79 108.93l.678-2.854zm-698.398 141.6c-26.09-40.72-47.248-87.826-60.984-137.998l-.84-3.6c-9.094-31.997-14.323-68.743-14.323-106.71 0-9.42.322-18.765.955-28.024l-.07 1.252c.595-71.52 36.02-134.644 90.124-173.307l.653-.443c29.837-16.663 65.462-26.474 103.378-26.474 33.69 0 65.573 7.747 93.962 21.556l-1.277-.56c13.483 5.42 24.337 10.548 34.87 16.196l-1.88-.92c-40.577 37.026-75.734 78.96-104.818 125.104l-1.47 2.498c-54.908 81.345-87.65 181.587-87.65 289.477 0 35.74 3.594 70.64 10.438 104.36l-.568-3.35c-21.822-23.51-41.783-49.394-59.26-77.007l-1.284-2.17zm666.208-521.37c-44.414-24.023-97.224-38.144-153.333-38.144-73.364 0-141.09 24.14-195.666 64.91l.86-.613C458.198 109.718 390.546 85.58 317.257 85.58c-56.047 0-108.797 14.117-154.89 38.987l1.735-.855C6.508 222.204-12.647 475.85 121.314 690.228 220.085 848.343 374.56 940.916 512 939.2c137.52 1.72 291.957-90.893 390.73-248.968 133.84-214.38 114.846-468.028-42.75-566.52z"/></svg>