<svg width="16" height="20" viewBox="0 0 16 20" fill="none" xmlns="http://www.w3.org/2000/svg">
<g clip-path="url(#clip0_360_3)">
<path d="M0.850771 15.2431C1.1695 15.184 1.687 15.1583 1.88748 15.447C2.29703 16.0391 2.08712 17.1897 1.32543 17.3457C-0.280189 17.6747 -0.412134 15.4779 0.850771 15.2423V15.2431Z" fill="#747474"/>
<path d="M5.35575 11.8776C5.39002 11.9008 5.41058 11.8014 5.42172 11.7748C6.50127 9.27471 7.76932 6.93054 9.23528 4.63863C10.0415 3.37744 11.893 0.372682 13.3487 0.029967C13.7771 -0.071134 14.8704 0.0728064 15.028 0.54661C15.1677 0.967293 14.0907 1.63387 13.802 1.9406C10.9669 4.94793 7.70935 11.744 6.14228 16.0133C5.79699 16.9541 5.59222 18.5906 5.15869 19.3951C4.68231 20.2801 4.02344 20.072 3.35686 19.5416C2.92247 19.1955 2.6106 18.7705 2.57804 18.1819C2.35356 14.1173 3.38085 7.47374 4.40043 3.46826C4.63519 2.54464 4.67546 2.33301 5.97606 2.68944C6.67349 2.8805 6.6872 3.17781 6.58181 3.85981C6.19626 6.34535 5.59908 9.03738 5.23323 11.5092C5.17754 12.0815 5.23751 11.7971 5.35661 11.8776H5.35575Z" fill="#747474"/>
<path d="M10.2609 12.3943C10.4605 12.5948 11.4347 11.3696 11.576 11.1879C12.4688 10.0398 12.994 8.73152 13.7746 7.56886C14.0213 7.2013 14.5551 6.39249 15.034 6.78833C16.3586 7.8833 14.065 10.4974 13.5835 11.5315C12.8458 13.1148 13.8474 12.8115 14.5131 11.9085C14.7804 11.5452 14.9706 10.6627 15.4881 10.7792C16.4512 10.996 15.6475 12.1124 15.1249 12.8655C14.4608 13.8217 12.0815 14.1259 11.7962 12.6513C10.9223 13.5921 8.84717 14.0505 8.57471 12.3309C8.3845 11.1322 9.8299 8.65355 10.5325 7.65454C10.8675 7.17817 11.4278 6.17315 12.0421 6.96483C12.5074 7.56458 12.2246 8.21916 11.9556 8.82663C11.7465 9.29957 9.99183 12.1235 10.2617 12.3943H10.2609Z" fill="#747474"/>
</g>
<defs>
<clipPath id="clip0_360_3">
<rect width="15.9388" height="20" fill="white"/>
</clipPath>
</defs>
</svg>
